#N canvas 978 22 771 620 10;
#X obj 275 172 notein;
#X floatatom 274 282 5 0 0 0 - - -;
#X floatatom 362 282 5 0 0 0 - - -;
#X floatatom 344 189 5 0 0 0 - - -;
#X floatatom 43 178 5 0 0 0 - - -;
#X floatatom 87 47 5 0 0 0 - - -;
#X floatatom -4 177 5 0 0 0 - - -;
#X obj 4 116 ctlin;
#X msg 148 489 disconnect;
#X obj 267 508 netsend 1;
#X floatatom 267 532 5 0 0 0 - - -;
#X msg 276 363 send sc \$1;
#X msg 363 362 send sv \$1;
#X msg 309 490 connect 192.168.0.195 4009;
#X obj 107 236 route 0 1;
#X obj 106 86 expr if($f1 > 16 \, 1 \, 0);
#X obj -4 236 v ctlv;
#X obj 48 237 v ctlc;
#X msg -64 322 send lv ctlv;
#X msg 16 322 send lc ctlc;
#X msg 97 322 send nkc ctlc;
#X msg 184 322 send nkv ctlv;
#X connect 0 0 1 0;
#X connect 0 1 2 0;
#X connect 0 2 3 0;
#X connect 1 0 11 0;
#X connect 2 0 12 0;
#X connect 4 0 17 0;
#X connect 5 0 15 0;
#X connect 6 0 16 0;
#X connect 7 0 6 0;
#X connect 7 1 4 0;
#X connect 7 2 5 0;
#X connect 8 0 9 0;
#X connect 9 0 10 0;
#X connect 11 0 9 0;
#X connect 12 0 9 0;
#X connect 13 0 9 0;
#X connect 14 0 18 0;
#X connect 14 0 19 0;
#X connect 14 1 20 0;
#X connect 14 1 21 0;
#X connect 15 0 14 0;
#X connect 18 0 9 0;
#X connect 19 0 9 0;
#X connect 20 0 9 0;
#X connect 21 0 9 0;
